<?xml version="1.0" encoding="iso-8859-1"?>
<!-- Uploaded to: SVG Repo, www.svgrepo.com, Generator: SVG Repo Mixer Tools -->
<!DOCTYPE svg PUBLIC "-//W3C//DTD SVG 1.1//EN" "http://www.w3.org/Graphics/SVG/1.1/DTD/svg11.dtd">
<svg fill="#000000" version="1.1" id="Capa_1" xmlns="http://www.w3.org/2000/svg" xmlns:xlink="http://www.w3.org/1999/xlink" 
	 width="800px" height="800px" viewBox="0 0 31.719 31.719"
	 xml:space="preserve">
<g>
	<g>
		<path d="M30.347,12.832h-2.546V8.034h2.546c0.759,0,1.372-0.614,1.372-1.373c0-0.758-0.613-1.373-1.372-1.373h-2.546H2.478v10.29
			h25.323h2.546c0.759,0,1.372-0.614,1.372-1.373C31.719,13.446,31.105,12.832,30.347,12.832z M25.056,12.832H5.223V8.034h19.833
			V12.832z"/>
		<path d="M1.373,16.139C0.614,16.139,0,16.753,0,17.513c0,0.758,0.614,1.373,1.373,1.373h2.545v4.799H1.373
			C0.614,23.685,0,24.298,0,25.058c0,0.758,0.614,1.373,1.373,1.373h2.545H29.24V16.14H3.918L1.373,16.139L1.373,16.139z
			 M6.663,18.884h19.833v4.799H6.663V18.884z"/>
	</g>
</g>
</svg>