<svg xmlns="http://www.w3.org/2000/svg" xml:space="preserve" width="2048" height="2048" style="shape-rendering:geometricPrecision;text-rendering:geometricPrecision;image-rendering:optimizeQuality;fill-rule:evenodd;clip-rule:evenodd"><defs><style>.fil2{fill:#66bb6a}.fil0,.fil1{fill:#212121;fill-rule:nonzero}.fil1{fill:#66bb6a}</style></defs><g id="Layer_x0020_1"><path class="fil0" d="M279.999 483.384h1488c13.254 0 24 10.746 24 24v839.385c0 13.254-10.746 24-24 24h-1488c-13.254 0-24-10.746-24-24V507.384c0-13.254 10.746-24 24-24zm1464 48h-1440v791.385h1440V531.384z"/><g id="_460814192"><path id="_460814432" class="fil0" d="M876.308 1346.77c0-13.254-10.746-24-24-24s-24 10.746-24 24v193.845c0 13.254 10.746 24 24 24s24-10.746 24-24V1346.77z"/><path id="_460814456" class="fil0" d="M1171.69 1540.61c0 13.254 10.746 24 24 24s24-10.746 24-24v-193.845c0-13.254-10.746-24-24-24s-24 10.746-24 24v193.845z"/></g><path class="fil0" d="M702.086 1516.61h643.834v48H702.086z"/><path class="fil1" d="M1140 659.143h480v48h-480zM1140 1000.43h480v48h-480zM1140 1171.07h480v48h-480z"/><g id="_460812944"><path id="_460813976" class="fil1" d="m411.651 1174.77 140.002-213.98 36.705 24.014 28.113-34.358 91.618 74.961 53.918-143.784 44.814 16.687-57.702 153.872-37.672-14.028-25.475 31.135-96.401-78.874-137.796 210.607-40.124-26.252zm382.08-339.027 64.023-56.02 31.5 36-64.023 56.02-31.5-36zm105.273-83.945 51.322-29.388 23.814 41.625-51.323 29.388-23.813-41.625z"/><circle id="_460813688" class="fil2" cx="584.001" cy="968" r="39.999"/><circle id="_460813544" class="fil2" cx="717.444" cy="1055.35" r="39.999"/><circle id="_460813520" class="fil2" cx="792.39" cy="868.701" r="39.999"/><circle id="_460813592" class="fil2" cx="890.595" cy="782.773" r="40.001"/><path id="_460813328" class="fil1" d="M425.465 693.221h68.54v48h-68.54z"/><path id="_460813664" class="fil1" d="M425.465 795.48h68.54v48h-68.54z"/><path id="_460813280" class="fil1" d="M425.465 897.738h68.54v48h-68.54z"/><path id="_460813400" class="fil1" d="M425.465 999.996h68.54V1048h-68.54z"/><path id="_460812584" class="fil1" d="M961.465 1219.08H401.559v-24l.001-536.002h47.813l-.001 512.002h512.093z"/><g><path id="_460813136" class="fil1" d="M539.484 1195.08v-68.54h48v68.54z"/><path id="_460812872" class="fil1" d="M641.743 1195.08v-68.54h48v68.54z"/><path id="_460812752" class="fil1" d="M744.001 1195.08v-68.54h48v68.54z"/><path id="_460813016" class="fil1" d="M846.259 1195.08v-68.54h48v68.54z"/></g></g><path class="fil1" d="M1140 829.788h480v48h-480z"/></g><path style="fill:none" d="M0 0h2048v2048H0z"/></svg>