<svg xmlns="http://www.w3.org/2000/svg" xml:space="preserve" width="2048" height="2048" style="shape-rendering:geometricPrecision;text-rendering:geometricPrecision;image-rendering:optimizeQuality;fill-rule:evenodd;clip-rule:evenodd"><defs><style>.fil0{fill:#66bb6a;fill-rule:nonzero}</style></defs><g id="Layer_x0020_1"><g id="_475130544"><path id="_475130880" class="fil0" d="M703.086 1106.97h641.829c13.254 0 24 10.746 24 24V1440c0 13.254-10.746 24-24 24H703.086c-13.254 0-24-10.746-24-24v-309.03c0-13.254 10.746-24 24-24zm617.829 48H727.086V1416h593.829v-261.03z"/><path id="_475130688" class="fil0" d="M750.4 1032.74c0 13.254 10.746 24 24 24s24-10.746 24-24V857.602c0-62.015 25.388-118.412 66.288-159.312 40.9-40.9 97.297-66.288 159.312-66.288h.001c62.014 0 118.41 25.388 159.311 66.29 40.902 40.9 66.29 97.296 66.29 159.31v273.372c0 13.255 10.745 24 24 24 13.254 0 24-10.745 24-24V857.602c0-75.264-30.774-143.672-80.352-193.249-49.577-49.578-117.984-80.351-193.249-80.351H1024c-75.265 0-143.673 30.773-193.25 80.35s-80.35 117.985-80.35 193.25v175.138z"/><path id="_475130472" d="M1024 1206.8c20.536 0 37.184 16.648 37.184 37.185 0 12.956-6.629 24.362-16.678 31.019v89.172h-41.011v-89.17c-10.05-6.658-16.678-18.065-16.678-31.021 0-20.537 16.647-37.185 37.183-37.185z" style="fill:#66bb6a"/></g><path d="M1024 255.999c212.075 0 404.076 85.962 543.057 224.943C1706.039 619.924 1792 811.924 1792 1023.999s-85.962 404.076-224.943 543.057c-138.982 138.982-330.982 224.943-543.057 224.943s-404.076-85.962-543.057-224.943C341.961 1428.074 256 1236.074 256 1023.999s85.962-404.076 224.943-543.057C619.925 341.96 811.925 255.999 1024 255.999zm509.119 258.881C1402.827 384.588 1222.824 303.999 1024 303.999c-198.825 0-378.827 80.589-509.119 210.881C384.589 645.172 304 825.175 304 1023.999c0 198.825 80.589 378.827 210.881 509.119C645.173 1663.41 825.176 1743.999 1024 1743.999c198.825 0 378.827-80.589 509.119-210.881C1663.411 1402.826 1744 1222.823 1744 1023.999c0-198.825-80.589-378.827-210.881-509.119z" style="fill:#212121;fill-rule:nonzero"/></g><path style="fill:none" d="M0 0h2048v2048H0z"/></svg>