<svg xmlns="http://www.w3.org/2000/svg" xml:space="preserve" width="2048" height="2048" style="shape-rendering:geometricPrecision;text-rendering:geometricPrecision;image-rendering:optimizeQuality;fill-rule:evenodd;clip-rule:evenodd"><defs><style>.fil0{fill:none}.fil2{fill:#757575}</style></defs><g id="Layer_x0020_1"><path class="fil0" d="M0 0h2048v2048H0z"/><path class="fil0" d="M255.999 255.999h1536v1536h-1536z"/><path class="fil0" d="M255.999 255.999h1536v1536h-1536z"/><path class="fil0" d="M255.999 255.999h1536v1536h-1536z"/><g id="_342375896"><path id="_342376088" d="M1024 832.068H448.243c-53.06 0-96.12 43.094-96.12 96.12v767.69c0 52.923 43.06 96.119 96.12 96.119H1024v-959.93z" style="fill:#616161"/><path id="_342375920" class="fil2" d="M1599.76 832.068h-575.757v959.929H1599.76c53.025 0 96.119-43.195 96.119-96.118V928.188c0-53.026-43.094-96.12-96.12-96.12z"/></g><path class="fil2" d="M728.536 832.068v-88.67c0-163.055 132.579-295.158 295.77-295.158 107.241 0 200.502 57.582 252.064 143.87l1.94-1.461c17.278 24.386 44.997 41.767 77.274 41.767 53.026 0 96.118-43.196 96.118-96.12 0-12.72-2.788-25.304-7.448-36.596l-.952-1.803c-4.217-9.83-10.34-18.332-17.414-25.781-87.582-129.825-233.868-216.114-401.582-216.114-269.614 0-487.53 218.393-487.53 487.395v88.67h191.76z"/><path d="M1100.87 1331.85v120.796c0 42.337-34.533 76.87-76.87 76.87-42.336 0-76.87-34.533-76.87-76.87V1331.85c-33.719-24.409-54.222-63.7-54.222-106.2 0-72.39 58.702-131.092 131.093-131.092 72.39 0 131.092 58.702 131.092 131.092 0 42.5-20.503 81.791-54.223 106.2z" style="fill:#424242"/><path d="M1024 1124.55c55.832 0 101.092 45.26 101.092 101.092 0 38.915-21.991 72.689-54.222 89.585v137.411c0 25.78-21.091 46.87-46.87 46.87-25.779 0-46.87-21.09-46.87-46.87v-137.41c-32.23-16.897-54.222-50.671-54.222-89.586 0-55.832 45.26-101.092 101.092-101.092z" style="fill:#fff"/></g></svg>