<?xml version="1.0" encoding="UTF-8"?>
<!DOCTYPE svg PUBLIC "-//W3C//DTD SVG 1.1//EN" "http://www.w3.org/Graphics/SVG/1.1/DTD/svg11.dtd">
<!-- Creator: CorelDRAW -->
<svg xmlns="http://www.w3.org/2000/svg" xml:space="preserve" width="2048px" height="2048px" style="shape-rendering:geometricPrecision; text-rendering:geometricPrecision; image-rendering:optimizeQuality; fill-rule:evenodd; clip-rule:evenodd"
viewBox="0 0 2048 2048"
 xmlns:xlink="http://www.w3.org/1999/xlink">
 <defs>
  <style type="text/css">
   <![CDATA[
    .fil2 {fill:none}
    .fil1 {fill:#212121;fill-rule:nonzero}
    .fil0 {fill:#66BB6A;fill-rule:nonzero}
   ]]>
  </style>
 </defs>
 <g id="Layer_x0020_1">
  <metadata id="CorelCorpID_0Corel-Layer"/>
  <path class="fil0" d="M1457.08 719.343c15.3638,3.7878 30.2079,8.67993 44.4461,14.5819 14.5583,6.03426 28.5414,13.1162 41.8536,21.1441l57.8965 -57.8965 -0.00236221 -0.0011811c9.37205,-9.37205 24.5693,-9.37324 33.9414,-0.0011811l0.129921 0.133465 72.8942 72.8942 0.0011811 -0.0011811c9.37205,9.37205 9.37205,24.5681 0,33.9402l-0.0885827 0.0862205 -57.8103 57.8079c8.0256,13.3099 15.1051,27.2929 21.1382,41.8489 5.90315,14.2394 10.7965,29.087 14.5854,44.452l81.9048 0c13.2543,0 24,10.7457 24,24l0 103.274c0,13.2543 -10.7457,24 -24,24l-81.9024 0c-3.78898,15.3638 -8.68111,30.2114 -14.5843,44.4496 -6.03308,14.5571 -13.1138,28.539 -21.1406,41.8489l57.8989 57.8977 0.0011811 -0.00236221c9.37205,9.37205 9.37324,24.5693 0.0011811,33.9414l-0.133465 0.129921 -72.8965 72.8942 -16.9689 -16.9689 16.9701 16.9713c-9.37205,9.37205 -24.5693,9.37087 -33.9414,-0.0011811l-0.129921 -0.133465 -57.763 -57.7666c-13.3122,8.02796 -27.2965,15.1099 -41.8559,21.1441 -14.2358,5.90315 -29.0823,10.7953 -44.4449,14.5843l0 81.9001c0,5.33504 -1.74213,10.2626 -4.68662,14.2476 -7.85906,-22.8272 -20.8264,-43.7941 -38.2819,-61.2497l-5.0315 -5.0315 0 -48.8823c-0.158268,-11.5287 8.03032,-21.8162 19.7504,-23.9244l4.24961 23.6209 -4.2189 -23.5311c18.7099,-3.36496 36.8882,-8.77087 54.2882,-15.9851 17.2819,-7.16339 33.6933,-16.1398 49.0016,-26.6929 9.40631,-7.14686 22.8815,-6.42875 31.4681,2.15788l-0.00236221 0.0011811 54.6296 54.6331 39.0886 -39.0874 -54.2906 -54.2882c-8.37875,-8.02796 -9.91536,-21.1795 -3.08386,-31.0087l19.7091 13.6961 -19.6878 -13.6878c10.7953,-15.5351 19.9618,-32.2181 27.2504,-49.8024 6.95906,-16.787 12.235,-34.2981 15.6201,-52.3134 1.13032,-12.2043 11.3953,-21.7606 23.8949,-21.7606l77.2229 0 0 -55.2745 -76.9654 0c-11.511,0.137008 -21.7748,-8.04568 -23.8795,-19.7516l23.6209 -4.24843 -23.5311 4.2189c-3.36614,-18.7146 -8.77205,-36.8929 -15.9862,-54.2953 -7.16221,-17.2795 -16.1362,-33.6886 -26.687,-48.9933 -7.14686,-9.40631 -6.42875,-22.8815 2.15788,-31.4681l0.0011811 0.00236221 54.6319 -54.6296 -39.0874 -39.0874 -54.3296 54.3308c-8.03032,8.34095 -21.1536,9.85985 -30.9662,3.04016l13.6961 -19.7079 -13.6878 19.6878c-15.5362,-10.7965 -32.2229,-19.9642 -49.8071,-27.254 -16.7847,-6.9567 -34.2933,-12.2339 -52.3099,-15.6177 -12.2043,-1.13032 -21.7606,-11.3953 -21.7606,-23.8949l0 -77.2217 -55.2721 0 0 76.9642c0.137008,11.511 -8.04686,21.7736 -19.7528,23.8784l-4.24725 -23.6209 4.2189 23.5311c-18.7146,3.36496 -36.8941,8.77087 -54.2953,15.9839 -17.2784,7.16221 -33.6898,16.1374 -48.9945,26.6918 -9.40631,7.14686 -22.8815,6.42875 -31.4681,-2.15788l0.00236221 -0.0011811 -54.6296 -54.6319 -39.0886 39.0863 54.2882 54.287c8.37993,8.02678 9.91654,21.1772 3.08622,31.0075l-19.7103 -13.6937 19.6878 13.6878c-10.7953,15.5386 -19.963,32.2252 -27.2528,49.813 -6.95788,16.7835 -12.2339,34.291 -15.6177,52.304 -1.13032,12.2043 -11.3953,21.7606 -23.8949,21.7606l-49.1906 0 -48 -48 77.8713 0c3.78898,-15.3614 8.67875,-30.2044 14.5807,-44.4402 6.03544,-14.5595 13.1162,-28.5437 21.1441,-41.8583l-57.8989 -57.8989 -0.0011811 0.00236221c-9.37205,-9.37205 -9.37324,-24.5693 -0.0011811,-33.9414l0.133465 -0.129921 72.8953 -72.893 16.9689 16.9689 -16.9701 -16.9713c9.37205,-9.37205 24.5693,-9.37087 33.9414,0.0011811l0.129921 0.133465 57.7619 57.7642c13.311,-8.02796 27.2953,-15.1075 41.8512,-21.1417 14.2394,-5.90315 29.087,-10.7953 44.452,-14.5843l0 -81.9012c0,-13.2543 10.7457,-24 24,-24l103.272 0c13.2543,0 24,10.7457 24,24l0 81.9012z"/>
  <path class="fil0" d="M1468.32 937.091c-11.426,-11.4272 -24.9307,-20.5748 -39.8055,-26.7366 -14.3847,-5.95748 -30.2788,-9.24686 -47.0717,-9.24686 -16.7929,0 -32.687,3.28937 -47.0717,9.24686 -14.8748,6.16182 -28.3795,15.3095 -39.8055,26.7366 -11.4272,11.426 -20.5748,24.9307 -26.7366,39.8055 -5.95748,14.3847 -9.24686,30.2788 -9.24686,47.0717 0,16.7929 3.28937,32.687 9.24686,47.0717 6.16182,14.8748 15.3095,28.3795 26.7366,39.8055 11.426,11.4272 24.9307,20.5748 39.8055,26.7366 14.3847,5.95748 30.2788,9.24686 47.0717,9.24686 16.7929,0 32.687,-3.28937 47.0717,-9.24686 14.8748,-6.16182 28.3795,-15.3095 39.8055,-26.7366 11.4272,-11.426 20.5748,-24.9307 26.7366,-39.8055 5.95748,-14.3847 9.24686,-30.2788 9.24686,-47.0717 0,-16.7929 -3.28937,-32.687 -9.24686,-47.0717 -6.16182,-14.8748 -15.3095,-28.3795 -26.7366,-39.8055zm-21.6189 -70.9878c21.0638,8.72599 39.9071,21.3992 55.5567,37.05 15.6508,15.6496 28.324,34.4929 37.05,55.5567 8.37284,20.2169 12.9957,42.2658 12.9957,65.2583 0,22.9925 -4.62284,45.0414 -12.9957,65.2583 -8.72599,21.0638 -21.3992,39.9071 -37.05,55.5567 -15.6496,15.6508 -34.4929,28.324 -55.5567,37.05 -20.2169,8.37284 -42.2658,12.9957 -65.2583,12.9957 -22.9925,0 -45.0414,-4.62284 -65.2583,-12.9957 -21.0638,-8.72599 -39.9059,-21.398 -55.5567,-37.05 -15.6508,-15.6496 -28.324,-34.4918 -37.05,-55.5567 -8.37284,-20.2169 -12.9957,-42.2658 -12.9957,-65.2583 0,-22.9925 4.62284,-45.0414 12.9957,-65.2583 8.72599,-21.065 21.3992,-39.9071 37.05,-55.5567 15.6508,-15.652 34.4929,-28.324 55.5567,-37.05 20.2169,-8.37284 42.2658,-12.9957 65.2583,-12.9957 22.9925,0 45.0414,4.62284 65.2583,12.9957z"/>
  <path class="fil1" d="M331.741 657.313l207.379 207.38 74.093 -74.0942 74.0942 -74.093 -207.839 -207.838 -0.0011811 0.0011811c-2.29843,-2.29843 -4.03229,-4.94764 -5.20276,-7.7752 -11.2831,-25.2083 -0.819686,-44.4 25.1079,-56.4839 18.4559,-8.60198 47.8949,-12.5232 82.2473,-10.4445 32.387,1.95945 70.2154,9.20079 108.002,22.852 127.875,46.1965 255.486,164.04 178.897,395.025l523.972 523.97 4.64882 4.64882c26.7,26.7 40.0536,61.8768 40.0536,97.0324 0,35.1532 -13.3512,70.3276 -40.0536,97.03 -26.7036,26.7036 -61.878,40.0571 -97.0312,40.0571 -35.1532,0 -70.3276,-13.3547 -97.0312,-40.0571l-0.00236221 0.00236221c-0.437008,-0.437008 -0.855119,-0.887009 -1.25079,-1.34764l-3.34961 -3.34961 -0.046063 0.046063 -0.0011811 -0.0011811 -0.00236221 0.0011811 -0.129921 -0.133465 -523.838 -523.837c-230.985,76.5886 -348.828,-51.0225 -395.026,-178.897 -13.6512,-37.787 -20.8925,-75.6154 -22.852,-108.002 -2.07874,-34.3512 1.8437,-63.7902 10.4457,-82.2473 12.2327,-26.2441 31.7469,-36.6485 57.4146,-24.6851l-10.1256 21.75 10.1398 -21.7536c2.82284,1.31575 5.2689,3.11103 7.28741,5.24292zm190.41 258.287l-213.58 -213.581c-3.99922,12.202 -5.5689,31.1859 -4.17874,54.1737 1.71732,28.3902 8.06812,61.5556 20.0386,94.6914 39.5634,109.511 142.351,218.512 346.458,145.704 8.85827,-4.06181 19.6819,-2.44725 26.9776,4.84843l-0.0011811 0.0011811 534.357 534.356 0.147638 0.144095 -0.644882 0.644882 0.0555119 0.0307087 0.585827 -0.582284 3.30709 3.30827c0.458268,0.394488 0.905906,0.809056 1.34173,1.24488l-0.0484252 0.0484252 0.0011811 0 0.046063 -0.046063c17.3291,17.3291 40.2048,25.9949 63.0945,25.9949 22.8898,0 45.7654,-8.66694 63.0934,-25.9949 17.328,-17.328 25.9914,-40.2024 25.9914,-63.0922 0,-22.8921 -8.66694,-45.7701 -25.9914,-63.0945l-4.64882 -4.64882 -534.1 -534.098c-6.66733,-6.36497 -9.33662,-16.2992 -6.00473,-25.5248l0.0921261 0.0330709c74.1638,-205.369 -35.1933,-308.658 -145.043,-348.343 -33.1359,-11.9705 -66.3012,-18.3213 -94.6914,-20.0386 -22.989,-1.39016 -41.9729,0.178347 -54.1737,4.17756l213.45 213.449 0.133465 0.129921c9.37205,9.37205 9.37087,24.5693 -0.0011811,33.9414l-0.0011811 -0.00236221 -91.0631 91.0619 -90.9745 90.9757 -0.0862205 0.0885827c-9.37205,9.37205 -24.5681,9.37205 -33.9402,0l0.0011811 -0.0011811z"/>
  <path class="fil1" d="M854.853 998.302c-9.37087,-9.37087 -24.5669,-9.37087 -33.9378,0 -9.37087,9.37087 -9.37087,24.5669 0,33.9378l429.854 429.853c9.37087,9.37087 24.5669,9.37087 33.9378,0 9.37087,-9.37087 9.37087,-24.5669 0,-33.9378l-429.854 -429.853z"/>
 </g>
 <rect class="fil2" width="2048" height="2048"/>
</svg>
