<?xml version="1.0" encoding="utf-8"?>
<!-- Generator: Adobe Illustrator 24.0.0, SVG Export Plug-In . SVG Version: 6.00 Build 0)  -->
<svg version="1.1" id="Layer_2" xmlns="http://www.w3.org/2000/svg" xmlns:xlink="http://www.w3.org/1999/xlink" x="0px" y="0px"
	 viewBox="0 0 512 512" enable-background="new 0 0 512 512" xml:space="preserve">
<g>
	<g>
		<path fill="#6E83B7" d="M384.126,221.071c0-10.76-1.15-21.25-3.315-31.364L435,145.339l-34.414-59.606l-65.542,24.753
			c-15.49-14.022-33.942-24.828-54.302-31.383L269.414,10h-68.828l-11.328,69.103c-20.36,6.555-38.812,17.361-54.302,31.383
			L69.414,85.732L35,145.339l54.188,44.369c-2.165,10.114-3.315,20.604-3.315,31.364c0,10.76,1.15,21.25,3.315,31.364L35,296.804
			l34.414,59.606l65.542-24.753c15.49,14.022,33.942,24.828,54.302,31.383l11.328,69.103h68.828l11.328-69.103
			c20.36-6.555,38.812-17.361,54.302-31.383l65.542,24.753L435,296.804l-54.188-44.369
			C382.977,242.322,384.126,231.832,384.126,221.071z M235,257.779c-20.273,0-36.708-16.435-36.708-36.708
			s16.435-36.708,36.708-36.708s36.708,16.435,36.708,36.708S255.273,257.779,235,257.779z"/>
	</g>
	<g>
		<path fill="#466089" d="M235,313.071c-50.729,0-92-41.271-92-92s41.271-92,92-92c50.729,0,92,41.271,92,92
			S285.729,313.071,235,313.071z M235,149.071c-39.701,0-72,32.299-72,72s32.299,72,72,72s72-32.299,72-72
			S274.701,149.071,235,149.071z"/>
	</g>
	<g>
		<path fill="#EDEFF1" d="M436.569,361.006c0-4.878-0.37-9.67-1.082-14.349L477,312.845l-25.792-44.672l-50.056,19.052
			c-7.44-5.973-15.8-10.845-24.837-14.365l-8.524-52.847h-51.583l-8.524,52.847c-9.037,3.521-17.398,8.393-24.837,14.365
			l-50.056-19.052L207,312.845l41.513,33.812c-0.712,4.679-1.082,9.471-1.082,14.349s0.37,9.67,1.082,14.349L207,409.167
			l25.792,44.672l50.056-19.052c7.44,5.973,15.8,10.845,24.837,14.366L316.208,502h51.583l8.524-52.847
			c9.038-3.521,17.398-8.393,24.837-14.366l50.056,19.052L477,409.167l-41.513-33.812
			C436.199,370.676,436.569,365.884,436.569,361.006z M342,385.006c-13.255,0-24-10.745-24-24s10.745-24,24-24s24,10.745,24,24
			S355.255,385.006,342,385.006z"/>
	</g>
	<g>
		<path fill="#D3D3D3" d="M342,423.006c-34.187,0-62-27.813-62-62s27.813-62,62-62s62,27.813,62,62S376.187,423.006,342,423.006z
			 M342,313.006c-26.467,0-48,21.533-48,48s21.533,48,48,48s48-21.533,48-48S368.467,313.006,342,313.006z"/>
	</g>
</g>
</svg>
